<?xml version="1.0" standalone="no"?>
<!DOCTYPE svg PUBLIC "-//W3C//DTD SVG 20010904//EN"
 "http://www.w3.org/TR/2001/REC-SVG-20010904/DTD/svg10.dtd">
<svg version="1.0" xmlns="http://www.w3.org/2000/svg"
 width="2560.000000pt" height="918.000000pt" viewBox="0 0 2560.000000 918.000000"
 preserveAspectRatio="xMidYMid meet">

<g transform="translate(0.000000,918.000000) scale(0.100000,-0.100000)"
fill="#000000" stroke="none">
<path d="M15090 7921 c0 -5 -44 -12 -97 -15 -159 -10 -223 -17 -223 -27 0 -5
-27 -9 -60 -9 -33 0 -60 -4 -60 -10 0 -5 -24 -10 -52 -10 -61 -1 -159 -24
-138 -33 8 -3 -15 -6 -52 -6 -37 -1 -70 -5 -73 -11 -3 -5 -24 -10 -46 -10 -21
0 -39 -4 -39 -10 0 -5 -16 -10 -35 -10 -19 0 -35 -4 -35 -10 0 -5 -11 -10 -25
-10 -14 0 -25 -4 -25 -10 0 -5 -22 -10 -50 -10 -27 0 -50 -4 -50 -10 0 -5 -11
-10 -25 -10 -14 0 -25 -4 -25 -10 0 -5 -11 -10 -25 -10 -14 0 -25 -4 -25 -10
0 -5 -13 -10 -30 -10 -16 0 -45 -9 -65 -20 -20 -11 -44 -20 -55 -20 -11 0 -20
-4 -20 -10 0 -5 -13 -10 -30 -10 -16 0 -30 -4 -30 -10 0 -5 -7 -10 -15 -10 -8
0 -15 -4 -15 -10 0 -5 -9 -10 -20 -10 -11 0 -20 -4 -20 -10 0 -5 -11 -10 -25
-10 -14 0 -25 -4 -25 -10 0 -5 -9 -10 -20 -10 -11 0 -20 -4 -20 -10 0 -5 -9
-10 -20 -10 -11 0 -20 -4 -20 -10 0 -5 -8 -10 -18 -10 -10 0 -28 -9 -40 -20
-12 -11 -30 -20 -42 -20 -11 0 -20 -4 -20 -10 0 -5 -7 -10 -15 -10 -8 0 -15
-4 -15 -10 0 -5 -9 -10 -20 -10 -11 0 -29 -9 -40 -20 -11 -11 -24 -20 -30 -20
-5 0 -10 -4 -10 -10 0 -5 -7 -10 -15 -10 -8 0 -15 -4 -15 -10 0 -5 -8 -10 -18
-10 -10 0 -24 -9 -32 -20 -8 -11 -22 -20 -32 -20 -10 0 -18 -4 -18 -10 0 -5
-5 -10 -11 -10 -15 0 -39 -26 -32 -34 4 -3 -2 -6 -11 -6 -10 0 -31 -13 -46
-30 -15 -16 -32 -30 -37 -30 -5 0 -15 -9 -23 -20 -8 -11 -20 -20 -27 -20 -6 0
-15 -9 -18 -20 -3 -11 -13 -20 -21 -20 -8 0 -14 -4 -14 -10 0 -5 -6 -10 -14
-10 -8 0 -18 -9 -21 -20 -3 -11 -11 -20 -17 -20 -5 0 -23 -13 -38 -30 -15 -16
-33 -30 -39 -30 -6 0 -11 -4 -11 -10 0 -5 -35 -45 -77 -89 -43 -44 -89 -94
-103 -111 -14 -17 -37 -45 -52 -61 -16 -17 -28 -35 -28 -39 0 -5 -6 -15 -14
-22 -7 -8 -24 -34 -36 -58 -12 -24 -27 -49 -34 -57 -30 -33 -36 -43 -36 -56 0
-8 -9 -25 -20 -38 -11 -13 -23 -29 -28 -34 -5 -6 -6 -17 -4 -24 3 -8 0 -11 -7
-7 -7 5 -11 -1 -11 -13 0 -12 -5 -21 -11 -21 -5 0 -8 -4 -5 -9 4 -5 2 -11 -3
-13 -12 -4 -61 -103 -61 -123 0 -8 -4 -15 -8 -15 -8 0 -20 -25 -62 -130 -10
-25 -26 -65 -36 -88 l-18 -44 -45 6 c-25 4 -81 9 -123 12 -43 3 -78 10 -78 15
0 5 -87 9 -195 9 -110 0 -195 -4 -195 -9 0 -5 -44 -12 -97 -15 -144 -8 -203
-17 -178 -27 14 -5 2 -8 -37 -8 -32 -1 -58 -5 -58 -10 0 -5 -15 -11 -32 -14
-76 -13 -98 -20 -98 -28 0 -5 -13 -9 -30 -9 -16 0 -30 -4 -30 -10 0 -5 -18
-10 -40 -10 -22 0 -40 -4 -40 -10 0 -5 -9 -10 -20 -10 -11 0 -20 -4 -20 -10 0
-5 -7 -10 -15 -10 -8 0 -15 -4 -15 -10 0 -5 -13 -10 -30 -10 -16 0 -30 -4 -30
-10 0 -5 -9 -10 -20 -10 -11 0 -20 -4 -20 -10 0 -5 -7 -10 -15 -10 -8 0 -15
-4 -15 -10 0 -5 -11 -10 -25 -10 -14 0 -25 -4 -25 -10 0 -5 -7 -10 -15 -10 -8
0 -15 -4 -15 -10 0 -5 -7 -10 -15 -10 -8 0 -15 -4 -15 -10 0 -5 -7 -10 -15
-10 -8 0 -15 -4 -15 -10 0 -5 -7 -10 -15 -10 -8 0 -15 -4 -15 -10 0 -5 -7 -10
-15 -10 -8 0 -15 -4 -15 -10 0 -5 -6 -10 -13 -10 -7 0 -23 -9 -35 -20 -12 -11
-27 -20 -33 -20 -7 0 -10 -3 -6 -6 8 -9 -39 -54 -57 -54 -8 0 -18 -9 -21 -20
-3 -11 -11 -20 -16 -20 -6 0 -7 -4 -4 -10 3 -5 -1 -10 -9 -10 -9 0 -16 -4 -16
-9 0 -5 -18 -28 -40 -51 -22 -23 -40 -45 -40 -50 0 -5 -6 -15 -14 -23 -22 -22
-126 -234 -128 -262 -1 -14 -5 -25 -8 -25 -10 0 -40 -69 -40 -93 0 -12 -8 -54
-17 -92 -9 -39 -17 -108 -16 -155 0 -99 30 -288 48 -310 7 -8 27 -44 45 -79
17 -35 36 -69 41 -75 40 -47 49 -61 54 -77 4 -11 13 -19 21 -19 8 0 14 -4 14
-8 0 -13 36 -52 46 -52 5 0 16 -9 24 -20 8 -11 20 -20 27 -20 7 0 13 -4 13
-10 0 -5 11 -10 25 -10 14 0 25 -4 25 -10 0 -5 7 -10 15 -10 8 0 15 -4 15 -10
0 -5 9 -10 20 -10 11 0 20 -4 20 -10 0 -5 11 -10 25 -10 14 0 25 -4 25 -10 0
-5 9 -10 20 -10 11 0 20 -3 20 -8 0 -8 71 -32 95 -32 8 0 15 -4 15 -10 0 -5
20 -10 45 -10 25 0 45 -4 45 -10 0 -5 18 -10 40 -10 22 0 40 -4 40 -10 0 -5
11 -10 25 -10 14 0 25 -4 25 -10 0 -6 27 -10 60 -10 33 0 60 -4 60 -10 0 -5
11 -10 25 -10 14 0 25 -4 25 -10 0 -5 5 -10 11 -10 33 0 63 -68 54 -122 -7
-41 -71 -118 -99 -118 -8 0 -18 -4 -21 -10 -3 -5 -19 -10 -36 -10 -16 0 -29
-4 -29 -10 0 -6 -72 -10 -195 -10 -123 0 -195 4 -195 10 0 6 -20 10 -44 10
-25 0 -48 4 -51 10 -3 5 -17 10 -31 10 -13 0 -24 5 -24 10 0 6 -16 10 -35 10
-19 0 -35 5 -35 10 0 6 -7 10 -15 10 -8 0 -15 5 -15 10 0 6 -9 10 -20 10 -11
0 -20 5 -20 10 0 6 -9 10 -20 10 -11 0 -20 4 -20 8 0 5 -12 15 -27 23 -16 8
-35 22 -44 31 -9 10 -20 18 -23 18 -4 0 -25 18 -46 40 -45 46 -86 53 -110 19
-8 -12 -20 -27 -26 -33 -7 -7 -22 -32 -34 -57 -13 -24 -26 -46 -30 -49 -4 -3
-15 -20 -25 -39 -9 -19 -21 -39 -26 -45 -40 -48 -49 -61 -54 -77 -4 -11 -10
-19 -15 -19 -5 0 -12 -9 -15 -20 -3 -11 -13 -26 -20 -34 -8 -8 -16 -20 -17
-27 -3 -13 -7 -19 -34 -52 -7 -8 -20 -29 -29 -47 -10 -19 -24 -40 -31 -48 -8
-7 -14 -17 -14 -21 0 -7 -8 -18 -48 -67 -5 -5 -15 -21 -22 -34 -7 -13 -17 -29
-22 -34 -52 -64 -52 -64 -49 -96 4 -42 13 -60 29 -60 10 0 24 -9 32 -20 8 -11
22 -20 32 -20 10 0 18 -4 18 -10 0 -5 9 -10 20 -10 11 0 20 -4 20 -10 0 -5 9
-10 20 -10 11 0 20 -4 20 -10 0 -5 9 -10 20 -10 11 0 20 -4 20 -10 0 -5 14
-10 30 -10 17 0 30 -4 30 -10 0 -5 7 -10 15 -10 8 0 15 -4 15 -10 0 -5 16 -10
35 -10 19 0 35 -4 35 -10 0 -5 7 -10 15 -10 8 0 15 -4 15 -10 0 -5 15 -10 34
-10 19 0 38 -4 41 -10 3 -5 24 -10 46 -10 21 0 39 -4 39 -10 0 -5 21 -10 46
-10 25 0 43 -4 40 -9 -5 -8 14 -14 92 -28 17 -3 32 -9 32 -14 0 -5 25 -9 55
-9 30 0 55 -4 55 -9 0 -13 165 -24 385 -24 220 0 405 11 405 24 0 5 20 9 45 9
25 0 45 4 45 9 0 5 15 11 33 14 75 13 97 20 97 28 0 5 14 9 30 9 17 0 30 5 30
10 0 6 18 10 40 10 22 0 40 5 40 10 0 6 8 10 18 10 14 0 15 2 2 10 -11 7 -4
10 28 10 23 0 42 5 42 10 0 6 8 10 18 10 22 0 72 22 72 33 0 4 7 7 15 7 8 0
15 5 15 10 0 6 9 10 20 10 11 0 20 5 20 10 0 6 6 10 13 10 7 0 19 9 27 20 8
11 22 20 32 20 9 0 20 9 23 20 3 11 13 20 21 20 8 0 14 5 14 10 0 6 7 10 15
10 8 0 15 5 15 10 0 6 6 10 14 10 8 0 18 9 21 20 3 11 12 20 20 20 8 0 17 9
20 20 3 11 13 20 21 20 8 0 14 4 14 9 0 5 12 23 28 40 46 52 53 61 47 61 -3 0
6 11 20 25 14 14 25 30 25 34 0 5 14 23 30 41 17 18 33 43 36 56 4 14 15 29
25 35 24 12 24 27 0 48 -11 10 -26 35 -35 57 -8 21 -28 75 -44 119 -16 44 -40
105 -52 135 -12 30 -25 71 -30 90 -4 19 -15 55 -25 80 -9 25 -27 101 -40 170
-13 69 -30 149 -38 178 -9 31 -18 120 -22 220 -3 92 -8 175 -11 185 -4 11 -15
17 -35 17 -16 0 -29 4 -29 9 0 5 -35 12 -77 15 -137 10 -249 23 -223 26 26 3
-18 14 -102 27 -21 3 -38 9 -38 14 0 5 -13 9 -30 9 -16 0 -30 5 -30 10 0 6 -6
10 -13 10 -7 0 -23 9 -35 20 -12 11 -27 20 -34 20 -8 0 -20 9 -28 21 -8 11
-23 30 -32 41 -24 28 -23 80 3 130 24 47 42 68 59 68 6 0 20 9 32 20 12 11 28
20 35 20 7 0 13 5 13 10 0 6 27 10 60 10 33 0 60 4 60 10 0 6 35 10 85 10 50
0 85 -4 85 -10 0 -6 30 -10 70 -10 39 0 70 -4 70 -8 0 -5 16 -14 35 -22 19 -8
35 -17 35 -22 0 -14 57 -9 70 7 13 16 34 101 54 220 8 44 26 125 41 180 15 55
32 122 37 150 5 27 16 62 24 77 8 16 28 68 43 116 47 141 59 162 97 162 18 0
36 -4 39 -10 3 -5 24 -10 46 -10 21 0 39 -4 39 -10 0 -5 16 -10 36 -10 19 0
33 -4 30 -9 -7 -11 39 -31 74 -31 17 0 30 -4 30 -10 0 -5 16 -10 35 -10 19 0
35 -3 35 -7 0 -9 49 -33 67 -33 7 0 13 -4 13 -10 0 -5 11 -10 25 -10 14 0 25
-4 25 -10 0 -5 10 -10 23 -10 12 0 29 -9 37 -20 8 -11 25 -20 37 -20 13 0 23
-4 23 -10 0 -5 5 -10 12 -10 6 0 19 -7 29 -16 17 -16 17 -19 -7 -66 -26 -52
-34 -62 -70 -101 -11 -13 -24 -35 -28 -50 -3 -15 -13 -27 -21 -27 -7 0 -17 -9
-20 -20 -3 -11 -11 -20 -16 -20 -5 0 -9 -9 -9 -20 0 -11 -5 -20 -11 -20 -5 0
-7 -4 -4 -10 3 -5 0 -10 -8 -10 -8 0 -20 -13 -27 -30 -7 -16 -16 -30 -21 -30
-5 0 -9 -8 -9 -18 0 -10 -9 -24 -20 -32 -11 -8 -20 -20 -20 -28 0 -7 -6 -19
-12 -26 -7 -8 -20 -24 -28 -36 -8 -12 -23 -31 -32 -42 -10 -11 -20 -29 -23
-39 -4 -11 -10 -19 -14 -19 -5 0 -14 -13 -21 -30 -7 -16 -16 -30 -20 -30 -4 0
-12 -11 -18 -25 -12 -27 -18 -34 -64 -86 -16 -17 -28 -35 -28 -39 0 -4 -13
-22 -29 -40 l-28 -33 -42 23 c-22 13 -41 27 -41 32 0 4 -8 8 -18 8 -10 0 -24
9 -32 20 -8 11 -20 20 -27 20 -7 0 -13 5 -13 10 0 6 -10 10 -23 10 -12 0 -29
9 -37 20 -10 14 -26 20 -52 20 l-38 0 0 -160 0 -160 25 0 c14 0 25 -4 25 -10
0 -5 14 -10 30 -10 17 0 30 -4 30 -10 0 -5 11 -10 25 -10 14 0 25 -4 25 -10 0
-5 7 -10 15 -10 8 0 15 -4 15 -10 0 -5 7 -10 15 -10 8 0 15 -4 15 -10 0 -5 7
-10 16 -10 8 0 33 -18 54 -40 21 -22 43 -40 49 -40 5 0 13 -9 16 -20 3 -11 10
-20 14 -20 5 0 14 -13 21 -30 7 -16 16 -30 20 -30 16 0 51 -118 75 -253 19
-101 17 -131 -17 -290 -5 -26 -10 -63 -10 -82 0 -19 -4 -35 -8 -35 -4 0 -11
-16 -15 -36 -3 -20 -15 -55 -25 -78 -57 -131 -74 -166 -81 -166 -3 0 -12 -13
-19 -29 -9 -24 -9 -37 2 -68 7 -21 16 -40 19 -43 4 -3 23 -39 44 -80 21 -41
41 -77 45 -80 4 -3 15 -20 25 -39 9 -19 28 -45 41 -58 13 -13 24 -28 24 -33 0
-4 18 -27 40 -50 22 -23 40 -46 40 -51 0 -5 7 -9 15 -9 8 0 15 -4 15 -9 0 -11
75 -91 86 -91 9 0 44 -41 44 -52 0 -4 4 -8 10 -8 5 0 32 -22 59 -50 28 -27 53
-50 57 -50 9 0 44 -41 44 -52 0 -4 9 -8 20 -8 11 0 20 -4 20 -10 0 -5 6 -10
13 -10 7 0 19 -9 27 -20 8 -11 20 -20 27 -20 7 0 13 -4 13 -10 0 -5 7 -10 15
-10 8 0 15 -4 15 -10 0 -5 7 -10 15 -10 8 0 15 -4 15 -10 0 -5 9 -10 20 -10
11 0 20 -4 20 -10 0 -5 7 -10 16 -10 8 0 12 -4 9 -10 -3 -5 1 -10 9 -10 9 0
16 -4 16 -10 0 -5 7 -10 15 -10 8 0 15 -4 15 -10 0 -5 10 -10 23 -10 12 0 28
-9 35 -20 7 -11 19 -20 27 -20 8 0 15 -4 15 -10 0 -5 11 -10 25 -10 14 0 25
-4 25 -10 0 -5 6 -10 13 -10 6 0 23 -9 37 -20 14 -11 35 -20 48 -20 12 0 22
-4 22 -10 0 -5 9 -10 20 -10 11 0 20 -4 20 -10 0 -5 11 -10 25 -10 14 0 25 -4
25 -10 0 -5 16 -10 35 -10 19 0 35 -4 35 -10 0 -5 9 -10 20 -10 11 0 20 -4 20
-10 0 -5 9 -10 19 -10 11 0 23 -4 26 -10 3 -5 22 -10 41 -10 19 0 34 -4 34
-10 0 -5 14 -10 31 -10 17 0 28 -4 24 -10 -3 -6 5 -10 19 -10 14 0 27 -4 30
-9 3 -5 24 -12 46 -15 22 -3 58 -9 80 -12 22 -3 40 -10 40 -14 0 -8 37 -16
128 -26 28 -4 52 -10 52 -15 0 -5 27 -9 60 -9 33 0 60 -4 60 -10 0 -5 13 -10
29 -10 17 0 32 -4 35 -9 11 -18 97 -24 421 -28 320 -4 406 1 457 28 10 5 34 9
53 9 19 0 35 5 35 10 0 6 32 10 75 10 43 0 75 4 75 10 0 6 12 10 28 10 42 1
134 25 126 33 -4 4 11 7 34 7 22 0 44 5 47 10 3 6 24 10 45 10 21 0 42 5 45
10 3 6 17 10 31 10 14 0 22 4 19 10 -4 6 7 10 24 10 17 0 31 5 31 10 0 6 15
10 34 10 19 0 38 5 41 10 3 5 15 10 26 10 10 0 19 5 19 10 0 6 14 10 30 10 17
0 30 5 30 10 0 6 11 10 25 10 14 0 25 5 25 10 0 6 9 10 20 10 11 0 20 5 20 10
0 6 9 10 20 10 11 0 20 5 20 10 0 6 14 10 30 10 17 0 30 5 30 10 0 6 7 10 15
10 8 0 15 5 15 10 0 6 11 10 25 10 14 0 25 5 25 10 0 6 7 10 15 10 8 0 15 5
15 10 0 6 9 10 20 10 11 0 20 5 20 10 0 6 7 10 15 10 8 0 15 5 15 10 0 6 9 10
20 10 11 0 20 5 20 10 0 6 9 10 20 10 11 0 20 5 20 10 0 6 8 10 18 10 10 0 24
9 32 20 8 11 20 20 27 20 7 0 13 5 13 10 0 6 7 10 15 10 8 0 15 5 15 10 0 6 7
10 15 10 8 0 15 5 15 10 0 6 7 10 15 10 8 0 15 5 15 10 0 6 7 10 15 10 8 0 15
5 15 10 0 6 7 10 15 10 8 0 15 5 15 10 0 6 6 10 13 10 7 0 19 9 27 20 8 11 18
20 23 20 12 0 76 67 70 74 -4 3 2 6 13 6 11 0 26 9 34 20 8 11 19 20 24 20 5
0 14 6 20 14 6 8 20 16 31 18 22 3 21 5 9 -94 -11 -85 -117 -78 1141 -78 875
0 1119 3 1129 13 16 15 50 155 76 312 11 66 29 156 40 199 11 44 23 105 26
135 3 31 16 110 29 176 36 183 47 262 40 285 -5 17 -15 20 -63 22 l-57 1 50 7
c28 4 -182 8 -465 9 -283 1 -521 5 -528 10 -11 6 -7 42 22 182 19 96 44 207
55 248 12 40 28 108 36 150 9 42 22 99 30 126 8 28 23 95 34 150 11 55 25 118
30 140 39 152 81 338 87 383 4 28 10 52 15 52 5 0 9 10 9 23 0 12 9 56 20 97
11 41 22 102 26 135 4 33 12 71 19 85 7 14 22 70 34 125 12 55 28 125 37 155
25 85 40 213 26 218 -7 2 -10 8 -6 13 3 5 -180 9 -456 9 -276 0 -459 -4 -456
-9 4 -5 1 -11 -6 -13 -9 -3 -8 -15 1 -49 30 -106 57 -323 74 -589 11 -177 -40
-753 -75 -837 -11 -27 -19 -74 -34 -191 -4 -29 -10 -49 -14 -43 -5 10 -53
-165 -53 -196 0 -7 -4 -13 -8 -13 -5 0 -13 -19 -20 -42 -6 -24 -20 -68 -31
-98 -11 -30 -25 -70 -31 -87 -5 -18 -14 -33 -19 -33 -4 0 -8 -11 -8 -25 0 -13
-13 -53 -29 -87 -16 -35 -37 -82 -47 -105 -9 -24 -20 -43 -24 -43 -8 0 -40
-66 -40 -82 0 -6 -8 -18 -19 -27 -10 -9 -28 -36 -41 -60 -12 -25 -29 -51 -36
-59 -8 -7 -14 -17 -14 -21 0 -7 -8 -18 -48 -67 -5 -5 -15 -21 -22 -34 -7 -14
-18 -30 -24 -36 -6 -6 -18 -22 -26 -34 -8 -12 -23 -31 -32 -42 -10 -12 -18
-25 -18 -30 0 -4 -7 -8 -15 -8 -8 0 -15 -4 -15 -8 0 -12 -29 -47 -92 -113 -32
-33 -58 -64 -58 -70 0 -5 -7 -9 -16 -9 -9 0 -18 -9 -21 -20 -3 -11 -10 -20
-15 -20 -5 0 -6 -4 -3 -10 3 -5 -3 -10 -15 -10 -12 0 -29 -8 -38 -17 -16 -16
-17 -15 -21 8 -5 33 30 229 62 349 8 30 18 75 22 100 4 25 18 90 32 145 14 55
29 123 33 150 10 56 65 329 79 390 5 22 18 78 30 125 31 134 98 437 122 555 5
28 17 86 26 130 9 44 15 88 15 98 0 9 3 15 7 12 5 -2 11 8 14 23 3 15 14 77
25 138 11 61 25 128 31 150 5 21 22 97 36 167 14 71 32 148 40 170 8 23 18 71
24 107 13 85 21 121 31 145 8 18 27 113 45 230 9 51 28 64 98 65 31 0 57 5 57
10 0 6 12 10 26 10 26 0 26 2 21 44 -4 24 -17 75 -31 112 -13 38 -36 102 -51
143 -29 82 -42 109 -62 129 -7 7 -13 20 -13 28 0 16 -78 176 -90 184 -4 3 -17
25 -30 49 -12 25 -27 50 -34 57 -6 6 -18 22 -26 34 -8 12 -26 35 -40 50 -38
44 -60 73 -60 82 0 4 -6 8 -14 8 -8 0 -17 9 -21 19 -7 24 -59 81 -73 81 -6 0
-14 9 -17 20 -3 11 -11 20 -17 20 -12 0 -68 58 -68 71 0 5 -6 9 -14 9 -8 0
-18 9 -21 20 -3 11 -13 20 -21 20 -8 0 -14 4 -14 8 0 13 -36 52 -46 52 -5 0
-16 9 -24 20 -8 11 -19 20 -25 20 -6 0 -17 9 -25 20 -8 11 -20 20 -27 20 -7 0
-13 5 -13 10 0 6 -6 10 -13 10 -7 0 -18 9 -25 20 -7 11 -19 20 -27 20 -8 0
-15 5 -15 10 0 6 -6 10 -14 10 -8 0 -18 9 -21 20 -3 11 -15 20 -26 20 -10 0
-19 3 -19 8 0 4 -15 14 -32 22 -18 7 -42 22 -52 32 -11 10 -26 18 -33 18 -7 0
-13 5 -13 10 0 6 -9 10 -20 10 -11 0 -20 5 -20 10 0 6 -7 10 -15 10 -8 0 -15
5 -15 10 0 6 -9 10 -20 10 -11 0 -20 5 -20 10 0 6 -9 10 -20 10 -11 0 -20 4
-20 8 0 5 -16 14 -35 22 -19 8 -35 17 -35 22 0 4 -11 8 -25 8 -14 0 -25 5 -25
10 0 6 -9 10 -20 10 -11 0 -20 5 -20 10 0 6 -9 10 -20 10 -11 0 -20 5 -20 10
0 6 -20 10 -45 10 -25 0 -45 5 -45 10 0 6 -7 10 -15 10 -8 0 -15 5 -15 10 0 6
-9 10 -19 10 -11 0 -22 4 -25 9 -3 5 -22 12 -41 15 -19 3 -51 9 -70 12 -19 3
-35 10 -35 14 0 8 -39 18 -107 27 -24 3 -43 9 -43 14 0 5 -27 9 -60 9 -33 0
-60 4 -60 8 0 12 -109 32 -178 32 -35 0 -62 4 -62 10 0 6 -82 10 -225 10 -128
0 -225 -4 -225 -9z m430 -1221 c0 -5 20 -10 44 -10 25 0 48 -4 51 -10 3 -5 17
-10 30 -10 13 0 27 -4 30 -10 3 -5 21 -10 40 -10 19 0 37 -4 40 -10 3 -5 14
-10 24 -10 21 0 71 -22 71 -32 0 -5 11 -8 25 -8 14 0 25 -4 25 -10 0 -5 7 -10
15 -10 8 0 15 -3 15 -7 0 -9 49 -33 67 -33 7 0 13 -4 13 -10 0 -5 7 -10 15
-10 8 0 15 -4 15 -10 0 -5 9 -10 20 -10 11 0 20 -4 20 -10 0 -5 7 -10 15 -10
8 0 15 -4 15 -10 0 -5 9 -10 19 -10 11 0 23 -9 26 -20 3 -11 14 -20 23 -20 10
0 24 -9 32 -20 8 -11 20 -20 27 -20 6 0 15 -9 18 -20 3 -11 11 -20 16 -20 11
0 136 -126 159 -160 8 -12 20 -28 25 -34 6 -6 11 -17 13 -25 1 -7 8 -19 15
-26 7 -6 21 -32 31 -56 10 -24 25 -60 33 -79 9 -19 26 -88 39 -152 13 -65 28
-127 34 -138 22 -40 34 -314 22 -500 -12 -205 -18 -254 -31 -278 -5 -10 -17
-60 -26 -112 -9 -51 -22 -105 -29 -119 -7 -14 -21 -57 -30 -96 -9 -38 -25 -90
-35 -115 -45 -107 -52 -125 -51 -134 1 -5 -3 -12 -8 -15 -13 -8 -52 -87 -52
-105 0 -8 -11 -26 -25 -40 -14 -14 -25 -30 -25 -36 0 -10 -7 -20 -36 -53 -6
-7 -19 -28 -29 -46 -9 -19 -27 -44 -40 -57 -13 -13 -26 -33 -30 -44 -3 -11
-10 -20 -15 -20 -5 0 -11 -9 -15 -19 -3 -11 -19 -34 -36 -52 -16 -17 -29 -35
-29 -40 0 -5 -7 -9 -15 -9 -8 0 -15 -4 -15 -8 0 -13 -36 -52 -47 -52 -6 0 -16
-13 -23 -30 -7 -16 -18 -30 -24 -30 -6 0 -18 -9 -26 -20 -8 -11 -18 -20 -23
-20 -4 0 -30 -22 -57 -50 -27 -27 -53 -50 -59 -50 -6 0 -11 -4 -11 -10 0 -5
-6 -10 -13 -10 -7 0 -19 -9 -27 -20 -8 -11 -21 -20 -30 -20 -9 0 -22 -9 -30
-20 -8 -11 -22 -20 -32 -20 -10 0 -18 -4 -18 -10 0 -5 -7 -10 -15 -10 -8 0
-15 -4 -15 -10 0 -5 -9 -10 -20 -10 -11 0 -20 -4 -20 -10 0 -5 -9 -10 -20 -10
-11 0 -20 -3 -20 -7 0 -11 -50 -33 -72 -33 -10 0 -18 -4 -18 -10 0 -5 -7 -10
-15 -10 -8 0 -15 -4 -15 -10 0 -5 -9 -10 -20 -10 -11 0 -20 -4 -20 -10 0 -5
-20 -10 -44 -10 -25 0 -48 -4 -51 -10 -3 -5 -15 -10 -26 -10 -10 0 -19 -4 -19
-10 0 -5 -13 -10 -30 -10 -16 0 -30 -4 -30 -10 0 -5 -16 -10 -35 -10 -19 0
-35 -4 -35 -9 0 -11 -89 -20 -282 -27 -82 -3 -148 -10 -148 -15 0 -5 -9 -9
-20 -9 -11 0 -20 4 -20 9 0 5 -57 12 -127 15 -173 7 -253 16 -253 27 0 5 -18
9 -40 9 -22 0 -40 5 -40 10 0 6 -11 10 -25 10 -14 0 -25 5 -25 10 0 6 -11 10
-25 10 -14 0 -25 5 -25 10 0 6 -15 10 -34 10 -19 0 -38 5 -41 10 -3 5 -15 10
-26 10 -10 0 -19 5 -19 10 0 6 -11 10 -25 10 -14 0 -25 5 -25 10 0 6 -9 10
-19 10 -11 0 -23 5 -26 10 -3 6 -15 10 -26 10 -10 0 -19 5 -19 10 0 6 -7 10
-15 10 -8 0 -15 5 -15 10 0 6 -7 10 -15 10 -8 0 -15 5 -15 10 0 6 -8 10 -18
10 -10 0 -24 9 -32 20 -8 11 -20 20 -27 20 -7 0 -13 5 -13 10 0 6 -5 10 -11
10 -6 0 -24 14 -39 30 -15 17 -31 30 -35 30 -7 0 -52 47 -113 117 -17 21 -45
52 -60 69 -15 17 -38 54 -51 82 -14 29 -28 52 -33 52 -4 0 -8 8 -8 18 0 10 -7
27 -15 39 -9 12 -14 26 -13 30 3 14 -23 93 -31 93 -4 0 -14 26 -21 58 -7 31
-19 70 -27 86 -47 91 -56 620 -14 811 24 110 53 215 75 275 10 25 23 65 30 90
11 37 88 198 125 260 5 8 17 34 27 58 9 23 21 42 26 42 4 0 8 9 8 20 0 11 4
20 9 20 5 0 14 14 21 30 7 17 16 30 20 30 4 0 13 14 20 30 7 17 17 30 23 30 6
0 8 3 4 6 -3 3 5 17 19 31 13 13 24 28 24 33 0 5 23 32 50 60 28 28 50 56 50
61 0 5 7 9 15 9 8 0 15 4 15 8 0 11 35 52 44 52 6 0 47 35 102 88 18 17 37 32
41 32 5 0 15 9 23 20 8 11 21 20 30 20 9 0 22 9 30 20 8 11 20 20 27 20 7 0
13 5 13 10 0 6 8 10 18 10 10 0 28 9 40 20 12 11 26 20 32 20 5 0 10 5 10 10
0 6 9 10 20 10 11 0 20 5 20 10 0 6 9 10 20 10 11 0 20 5 20 10 0 6 7 10 15
10 8 0 15 5 15 10 0 6 9 10 19 10 11 0 23 5 26 10 3 6 15 10 26 10 10 0 19 5
19 10 0 6 9 10 21 10 11 0 17 5 14 10 -4 6 7 10 24 10 17 0 31 5 31 10 0 6 10
10 23 10 26 0 77 21 77 33 0 4 11 7 25 7 14 0 25 5 25 10 0 6 14 10 30 10 17
0 30 5 30 10 0 6 11 10 25 10 14 0 25 5 25 10 0 6 16 10 35 10 19 0 35 5 35
10 0 6 21 10 48 10 26 0 72 9 102 20 31 11 80 20 112 20 32 0 58 4 58 10 0 6
75 10 205 10 130 0 205 -4 205 -10z m-3913 -1636 c-3 -3 -12 -4 -19 -1 -8 3
-5 6 6 6 11 1 17 -2 13 -5z m6926 -1411 c-18 -2 -48 -2 -65 0 -18 2 -4 4 32 4
36 0 50 -2 33 -4z m745 0 c-16 -2 -40 -2 -55 0 -16 2 -3 4 27 4 30 0 43 -2 28
-4z m-4825 -1790 c-7 -2 -19 -2 -25 0 -7 3 -2 5 12 5 14 0 19 -2 13 -5z m584
1 c-3 -3 -12 -4 -19 -1 -8 3 -5 6 6 6 11 1 17 -2 13 -5z"/>
<path d="M23900 5960 c0 -6 -65 -10 -176 -10 -147 0 -178 -3 -191 -16 -18 -17
-42 -132 -42 -201 -1 -24 -5 -43 -10 -43 -5 0 -11 -19 -14 -42 -3 -24 -9 -61
-15 -83 -6 -22 -18 -85 -27 -140 -10 -55 -24 -127 -32 -160 -8 -33 -21 -105
-29 -160 -9 -55 -21 -125 -29 -155 -8 -30 -19 -93 -25 -140 -6 -47 -18 -110
-26 -140 -9 -30 -20 -73 -25 -95 -6 -22 -15 -43 -21 -46 -17 -11 -38 1 -38 22
0 10 -6 19 -14 19 -7 0 -16 13 -19 28 -3 16 -20 43 -36 61 -17 18 -31 36 -31
41 0 12 -36 50 -48 50 -6 0 -14 9 -17 20 -3 11 -14 20 -23 20 -10 0 -24 9 -32
20 -8 11 -20 20 -27 20 -7 0 -13 5 -13 10 0 6 -8 10 -18 10 -10 0 -24 9 -32
20 -8 11 -22 20 -32 20 -10 0 -26 4 -36 9 -32 17 -149 29 -193 20 -24 -4 -74
-8 -111 -9 -37 0 -70 -4 -73 -10 -3 -5 -17 -10 -31 -10 -13 0 -24 -4 -24 -10
0 -5 -9 -10 -20 -10 -11 0 -20 -4 -20 -10 0 -5 -11 -10 -25 -10 -14 0 -25 -4
-25 -10 0 -5 -8 -10 -18 -10 -22 0 -72 -22 -72 -32 0 -5 -7 -8 -15 -8 -8 0
-15 -4 -15 -10 0 -5 -7 -10 -15 -10 -8 0 -15 -4 -15 -10 0 -5 -7 -10 -15 -10
-8 0 -15 -4 -15 -10 0 -5 -5 -10 -11 -10 -6 0 -28 -18 -49 -40 -21 -22 -41
-40 -45 -40 -10 0 -65 -60 -65 -71 0 -5 -7 -9 -15 -9 -8 0 -15 -9 -15 -20 0
-11 -6 -20 -14 -20 -8 0 -17 -9 -21 -19 -3 -11 -18 -33 -33 -49 -15 -17 -34
-40 -42 -52 -8 -12 -20 -28 -26 -34 -6 -6 -14 -23 -17 -38 -4 -15 -13 -33 -21
-41 -8 -7 -28 -42 -46 -77 -18 -35 -38 -69 -45 -77 -7 -7 -16 -31 -20 -53 -4
-22 -10 -40 -14 -40 -12 0 -39 -69 -55 -140 -8 -36 -24 -103 -34 -150 -43
-188 -53 -279 -49 -450 6 -227 25 -325 89 -454 22 -44 46 -86 54 -93 8 -8 14
-18 14 -22 0 -13 36 -51 49 -51 6 0 11 -4 11 -8 0 -14 36 -52 49 -52 6 0 11
-4 11 -10 0 -5 5 -10 11 -10 7 0 25 -13 41 -30 15 -16 35 -30 43 -30 8 0 15
-4 15 -10 0 -5 11 -10 25 -10 14 0 25 -4 25 -10 0 -5 7 -10 15 -10 8 0 15 -4
15 -10 0 -5 18 -10 40 -10 22 0 40 -4 40 -9 0 -9 70 -20 135 -23 53 -1 175 15
175 23 0 5 20 9 45 9 26 0 59 8 80 20 20 11 44 20 55 20 11 0 20 5 20 10 0 6
8 10 18 10 11 0 27 9 37 20 10 11 24 20 32 20 7 0 13 3 13 8 0 4 15 14 33 21
17 8 44 27 59 43 14 15 31 28 37 28 6 0 11 5 11 10 0 6 7 10 15 10 8 0 15 4
15 8 0 13 36 52 48 52 6 0 14 9 17 20 3 11 13 20 21 20 8 0 17 7 20 15 4 8 11
15 16 15 10 0 9 -27 -8 -201 -5 -52 -3 -68 9 -81 9 -9 13 -18 10 -22 -4 -3
201 -6 455 -6 301 0 462 3 462 10 0 6 9 10 19 10 25 0 26 5 61 207 16 93 36
204 44 248 9 44 15 98 16 120 0 22 7 72 16 110 8 39 24 124 35 190 10 66 30
174 43 240 13 66 27 154 31 195 3 41 15 118 26 170 11 52 28 157 39 233 11 76
24 146 29 155 5 10 12 46 16 82 11 105 32 238 54 345 18 91 38 222 46 302 2
17 8 39 13 50 5 10 14 59 21 108 7 50 24 151 38 225 33 175 42 247 42 343 1
63 -2 77 -15 77 -8 0 -12 5 -9 10 4 7 -85 10 -259 10 -171 0 -266 -4 -266 -10z
m-1020 -1920 c0 -5 18 -10 40 -10 22 0 40 -4 40 -10 0 -5 5 -10 10 -10 28 0
120 -129 120 -166 0 -13 5 -35 12 -49 20 -43 -5 -161 -53 -257 -23 -46 -47
-86 -53 -90 -6 -4 -7 -8 -2 -8 5 0 -1 -8 -12 -19 -12 -10 -19 -21 -15 -25 3
-3 -1 -6 -11 -6 -16 0 -27 -7 -65 -41 -30 -27 -175 -49 -194 -30 -6 6 -19 11
-29 11 -10 0 -18 5 -18 10 0 6 -7 10 -15 10 -8 0 -15 4 -15 8 0 5 -11 15 -25
22 -13 7 -27 21 -30 32 -4 10 -13 24 -21 32 -8 8 -19 49 -26 90 -21 135 12
307 68 364 8 7 14 17 14 21 0 13 33 45 63 60 15 8 27 18 27 23 0 4 9 8 20 8
11 0 20 5 20 10 0 6 21 10 48 11 26 0 56 4 67 9 27 12 35 12 35 0z"/>
<path d="M20895 4919 c-66 -3 -249 -7 -407 -8 -328 -1 -338 -3 -338 -63 0 -21
-4 -38 -8 -38 -10 0 -26 -102 -47 -285 -7 -66 -20 -145 -29 -175 -8 -30 -22
-102 -30 -160 -8 -58 -22 -141 -32 -185 -9 -44 -18 -102 -20 -130 -5 -68 -20
-170 -33 -227 -24 -106 -32 -147 -41 -223 -6 -44 -20 -127 -31 -185 -11 -58
-27 -168 -36 -245 -9 -77 -20 -142 -24 -145 -11 -8 -27 -104 -35 -212 -5 -76
-4 -100 7 -110 11 -10 117 -13 526 -13 l512 0 10 22 c5 12 15 50 22 85 6 35
22 110 34 168 13 58 26 130 30 160 3 30 17 109 30 175 14 66 29 163 35 215 6
52 17 118 25 145 8 28 19 82 25 120 20 130 40 250 50 295 6 25 15 81 21 125 6
44 19 116 29 160 10 44 26 132 35 195 18 137 20 144 41 240 9 41 22 118 29
170 13 95 13 95 -11 118 -26 25 -56 26 -339 11z"/>
<path d="M7990 4880 c0 -5 -20 -10 -45 -10 -25 0 -45 -4 -45 -10 0 -5 -22 -10
-50 -10 -27 0 -50 -4 -50 -10 0 -5 -13 -10 -30 -10 -16 0 -30 -4 -30 -10 0 -5
-9 -10 -19 -10 -11 0 -23 -4 -26 -10 -3 -5 -15 -10 -26 -10 -10 0 -19 -4 -19
-10 0 -5 -7 -10 -15 -10 -8 0 -15 -4 -15 -10 0 -5 -7 -10 -15 -10 -8 0 -15 -4
-15 -10 0 -5 -6 -10 -14 -10 -16 0 -176 -154 -176 -169 0 -5 -6 -16 -14 -23
-20 -21 -46 -75 -39 -82 4 -3 -1 -6 -10 -6 -10 0 -17 -8 -17 -20 0 -11 -4 -20
-9 -20 -5 0 -12 -16 -16 -36 -3 -20 -13 -43 -20 -51 -20 -19 -34 -75 -42 -160
-3 -40 -10 -73 -16 -73 -25 0 16 -462 42 -480 4 -3 14 -26 22 -52 7 -27 16
-48 20 -48 4 0 12 -13 19 -30 7 -16 16 -30 20 -30 4 0 13 -14 20 -30 7 -17 26
-45 41 -63 45 -50 48 -54 42 -61 -4 -3 -1 -6 5 -6 13 0 72 -58 72 -71 0 -5 9
-9 20 -9 11 0 20 -4 20 -10 0 -5 7 -10 15 -10 8 0 15 -4 15 -10 0 -5 7 -10 15
-10 8 0 15 -4 15 -10 0 -5 7 -10 15 -10 8 0 15 -4 15 -10 0 -5 9 -10 20 -10
11 0 20 -4 20 -10 0 -5 11 -10 25 -10 14 0 25 -4 25 -10 0 -5 11 -10 25 -10
14 0 25 -4 25 -10 0 -6 28 -10 65 -10 37 0 65 -4 65 -10 0 -6 57 -10 150 -10
93 0 150 4 150 10 0 6 28 10 65 10 37 0 65 4 65 10 0 6 11 10 25 10 14 0 25 5
25 10 0 6 11 10 25 10 14 0 25 5 25 10 0 6 13 10 28 10 16 0 38 9 50 20 12 11
26 20 32 20 5 0 10 5 10 10 0 6 7 10 15 10 8 0 15 5 15 10 0 6 6 10 14 10 8 0
18 9 21 20 3 11 13 20 21 20 8 0 14 4 14 9 0 12 56 71 68 71 5 0 15 14 22 30
7 17 16 30 21 30 4 0 11 9 14 20 3 11 12 26 19 33 36 36 72 129 113 292 49
195 35 390 -43 623 -15 45 -59 137 -75 156 -40 47 -49 61 -54 77 -4 11 -13 19
-21 19 -8 0 -14 4 -14 9 0 13 -56 71 -68 71 -6 0 -14 9 -17 20 -3 11 -14 20
-23 20 -10 0 -24 9 -32 20 -8 11 -25 20 -38 20 -13 0 -20 4 -17 10 4 6 -5 10
-19 10 -14 0 -26 5 -26 10 0 6 -9 10 -20 10 -11 0 -20 5 -20 10 0 6 -11 10
-25 10 -14 0 -25 5 -25 10 0 6 -20 10 -45 10 -25 0 -45 5 -45 10 0 6 -30 10
-70 10 -40 0 -70 4 -70 10 0 6 -35 10 -85 10 -50 0 -85 -4 -85 -10z m213 -382
c15 -7 27 -16 27 -20 0 -5 9 -8 20 -8 11 0 20 -4 20 -10 0 -5 6 -10 13 -10 7
0 19 -9 27 -21 8 -12 27 -34 41 -50 14 -15 32 -43 38 -61 7 -18 21 -53 32 -78
29 -68 39 -140 38 -274 0 -133 -16 -243 -42 -293 -9 -18 -17 -39 -17 -48 0 -8
-4 -15 -10 -15 -5 0 -10 -8 -10 -18 0 -21 -32 -62 -48 -62 -6 0 -14 -9 -17
-20 -3 -11 -12 -20 -18 -20 -7 0 -19 -9 -27 -20 -8 -11 -25 -20 -37 -20 -13 0
-23 -4 -23 -8 0 -26 -200 -46 -215 -22 -3 6 -15 10 -26 10 -10 0 -19 5 -19 10
0 6 -9 10 -20 10 -33 0 -119 79 -139 128 -8 18 -17 32 -21 32 -19 0 -66 189
-75 300 -12 148 43 389 101 448 8 7 14 17 14 21 0 12 78 91 90 91 5 0 10 5 10
10 0 6 11 10 25 10 14 0 25 5 25 10 0 15 210 13 243 -2z"/>
<path d="M2770 4840 c0 -5 -11 -10 -25 -10 -42 0 -40 56 -37 -947 l2 -793 21
0 c11 0 17 -4 14 -10 -4 -7 135 -10 409 -10 266 0 417 4 421 10 3 6 19 10 35
10 16 0 32 5 35 10 3 6 22 10 41 10 19 0 34 5 34 10 0 6 14 10 30 10 17 0 30
5 30 10 0 6 7 10 15 10 8 0 15 5 15 10 0 6 11 10 25 10 14 0 25 5 25 10 0 6 7
10 15 10 8 0 15 5 15 10 0 6 6 10 13 10 7 0 19 9 27 21 28 39 47 59 59 59 6 0
11 4 11 9 0 5 6 16 14 24 8 7 29 42 47 78 32 62 33 67 34 189 l0 125 -39 74
c-21 41 -43 81 -50 88 -30 37 -70 73 -82 73 -8 0 -14 5 -14 10 0 6 -9 10 -20
10 -11 0 -20 5 -20 10 0 6 -7 10 -15 10 -8 0 -15 5 -15 10 0 6 -5 10 -10 10
-6 0 -22 7 -35 16 l-24 16 24 24 c13 13 31 24 40 24 9 0 13 5 10 10 -3 6 3 10
14 10 12 0 21 5 21 10 0 6 5 10 10 10 14 0 100 87 100 100 0 6 7 18 15 26 45
46 45 246 -1 337 -15 28 -32 57 -40 65 -8 7 -14 18 -14 23 0 5 -6 9 -14 9 -8
0 -18 9 -21 20 -3 11 -13 20 -21 20 -8 0 -14 5 -14 10 0 6 -9 10 -20 10 -11 0
-20 5 -20 10 0 6 -9 10 -20 10 -11 0 -20 5 -20 10 0 6 -11 10 -25 10 -14 0
-25 5 -25 10 0 6 -9 10 -20 10 -11 0 -20 4 -20 9 0 5 -15 12 -32 17 -52 12
-908 16 -908 4z m706 -324 c24 -23 54 -46 60 -46 20 0 37 -39 42 -95 5 -68
-10 -125 -34 -125 -7 0 -15 -8 -18 -18 -4 -12 -25 -23 -56 -32 -28 -8 -50 -17
-50 -22 0 -4 -25 -8 -55 -8 -30 0 -55 -4 -55 -10 0 -5 -18 -10 -40 -10 -22 0
-40 5 -40 10 0 6 -11 10 -23 10 -16 0 -28 9 -35 25 -15 32 -16 246 -2 297 10
35 13 37 58 40 85 5 236 -4 248 -16z m-166 -676 c0 -6 32 -10 75 -10 43 0 75
-4 75 -10 0 -5 7 -10 15 -10 9 0 25 -9 37 -20 12 -11 29 -20 38 -20 18 0 55
-74 65 -130 6 -37 -20 -136 -42 -158 -7 -7 -13 -18 -13 -23 0 -5 -9 -9 -20 -9
-11 0 -20 -4 -20 -10 0 -5 -7 -10 -15 -10 -8 0 -15 -4 -15 -10 0 -5 -11 -10
-25 -10 -14 0 -25 -4 -25 -10 0 -6 -49 -10 -128 -10 -128 0 -129 0 -140 25
-15 32 -16 352 -2 389 8 22 16 26 50 26 22 0 40 5 40 10 0 6 11 10 25 10 14 0
25 -4 25 -10z"/>
<path d="M4475 4840 c3 -5 0 -10 -8 -10 -8 0 -18 -7 -21 -16 -8 -20 -8 -1688
0 -1708 3 -9 15 -16 26 -16 10 0 16 -4 13 -10 -4 -7 64 -10 197 -10 135 0 198
4 188 10 -12 8 -9 10 13 10 l27 0 0 870 0 870 -27 0 c-22 0 -25 2 -13 10 10 6
-55 10 -193 10 -136 0 -206 -3 -202 -10z"/>
<path d="M5420 4840 c0 -5 -15 -10 -33 -10 -26 0 -36 -6 -45 -25 -9 -19 -12
-243 -12 -839 0 -448 3 -828 6 -845 4 -17 13 -31 20 -31 8 0 14 -4 14 -10 0
-6 55 -10 145 -10 90 0 145 -4 145 -10 0 -6 47 -10 120 -10 73 0 120 4 120 10
0 6 50 10 130 10 80 0 130 4 130 10 0 6 20 10 45 10 25 0 45 5 45 10 0 6 14
10 30 10 17 0 30 5 30 10 0 6 17 10 38 10 39 0 92 19 92 33 0 4 11 7 25 7 14
0 25 5 25 10 0 6 9 10 20 10 11 0 20 5 20 10 0 6 7 10 15 10 8 0 15 5 15 10 0
6 7 10 15 10 8 0 15 5 15 10 0 6 7 10 15 10 8 0 15 5 15 10 0 6 5 10 11 10 6
0 17 7 25 15 9 8 13 15 9 15 -4 0 0 7 9 15 8 8 22 15 30 15 9 0 16 4 16 8 0 5
8 18 18 30 9 11 24 30 32 42 8 12 20 28 27 35 23 24 101 191 111 240 37 170
44 228 40 361 -2 99 -7 139 -16 142 -6 2 -10 8 -7 12 3 5 -4 44 -15 87 -12 43
-24 88 -27 101 -3 12 -12 22 -19 22 -8 0 -14 7 -14 15 0 23 -28 74 -55 101
-13 13 -26 33 -30 44 -3 11 -12 20 -20 20 -8 0 -17 9 -20 20 -3 11 -11 20 -17
20 -5 0 -23 14 -38 30 -15 17 -33 30 -39 30 -6 0 -11 5 -11 10 0 6 -7 10 -15
10 -8 0 -15 5 -15 10 0 6 -9 10 -20 10 -11 0 -20 5 -20 10 0 6 -9 10 -20 10
-11 0 -20 5 -20 10 0 6 -9 10 -20 10 -11 0 -20 5 -20 10 0 6 -13 10 -29 10
-17 0 -33 5 -36 10 -3 6 -19 10 -36 10 -16 0 -29 5 -29 10 0 6 -20 10 -45 10
-25 0 -45 5 -45 10 0 7 -145 10 -415 10 -270 0 -415 -3 -415 -10z m708 -345
c23 -4 42 -11 42 -16 0 -5 9 -9 20 -9 11 0 20 -4 20 -10 0 -5 8 -10 18 -10 10
0 24 -9 32 -20 8 -11 18 -20 23 -20 9 0 36 -28 85 -84 12 -15 29 -44 37 -66 8
-22 23 -59 32 -82 25 -64 25 -335 0 -398 -10 -25 -23 -63 -30 -85 -6 -22 -15
-46 -21 -53 -26 -32 -125 -132 -131 -132 -3 0 -15 -9 -27 -20 -12 -11 -28 -20
-35 -20 -7 0 -13 -4 -13 -10 0 -5 -14 -10 -31 -10 -16 0 -28 -4 -25 -9 8 -12
-54 -21 -184 -27 -80 -4 -109 -2 -124 8 -17 14 -18 39 -17 539 0 490 2 525 18
537 19 14 221 12 311 -3z"/>
</g>
</svg>
